<svg xmlns="http://www.w3.org/2000/svg" viewBox="0 0 355.41 361.68">
  <defs>
    <style>
      .a {
        fill: none;
        stroke: #0069fc;
        stroke-miterlimit: 10;
      }
    </style>
  </defs>
  <polygon class="a" points="67.28 265.3 256.24 324.14 327.88 279.38 181.69 222.63 67.28 265.3"/>
  <line class="a" x1="99.6" y1="253.44" x2="275.85" y2="312.02"/>
  <line class="a" x1="134.72" y1="240.41" x2="296.11" y2="299.23"/>
  <line class="a" x1="163.08" y1="229.47" x2="316.15" y2="286.75"/>
  <path class="a" d="M68.77,269.31l-2.75-33c-.28-3.34-.76-9.15,1.34-11.75l19.32-33.19c2.29-2.82,9-1.59,12.54-.76l157.1,42.21a17,17,0,0,0,11.1-1.31l88.21-42.89a3.15,3.15,0,0,0-.58-5.87L208.36,144.25" transform="translate(-2.48 -4.26)"/>
  <path class="a" d="M264.58,335.53a17.71,17.71,0,0,1,5.21,12.65c0,9.53-7.28,17.25-16.25,17.25s-16.25-7.72-16.25-17.25c0-8.58,5.91-15.7,13.64-17" transform="translate(-2.48 -4.26)"/>
  <path class="a" d="M329.85,289.86a15.82,15.82,0,0,1,7.94,13.82,15.26,15.26,0,1,1-15.25-15.75c.36,0,.71,0,1.07,0" transform="translate(-2.48 -4.26)"/>
  <path class="a" d="M74.49,276.56c4,2,6.74,6.86,6.74,12.53,0,7.46-4.81,13.5-10.75,13.5s-10.75-6-10.75-13.5c0-5.48,2.61-10.21,6.35-12.32" transform="translate(-2.48 -4.26)"/>
  <path class="a" d="M187.91,233.23a11.63,11.63,0,0,1,5.89,10.33c0,6.35-4.7,11.5-10.5,11.5s-10.5-5.15-10.5-11.5A11.56,11.56,0,0,1,179.22,233" transform="translate(-2.48 -4.26)"/>
  <path class="a" d="M203.28,148.64l-110.58,40c-5.2,1.92-10-.59-12.13-5.69L25.38,41.74a8.14,8.14,0,0,1,7.15-11.3l132.05-5.7a10.8,10.8,0,0,1,10.75,7.5L209,136.92A9.42,9.42,0,0,1,203.28,148.64Z" transform="translate(-2.48 -4.26)"/>
  <line class="a" x1="33.27" y1="63.54" x2="179.15" y2="47.82"/>
  <line class="a" x1="43.17" y1="88.76" x2="185.18" y2="66.16"/>
  <line class="a" x1="52.68" y1="113.49" x2="191.08" y2="86.19"/>
  <line class="a" x1="61.49" y1="135.83" x2="196.83" y2="102.46"/>
  <line class="a" x1="71.16" y1="159.66" x2="202.52" y2="120.12"/>
  <path class="a" d="M3.5,11.41,23.93,25.79a33.21,33.21,0,0,1,10.7,12.52h0A20.24,20.24,0,0,0,47.4,48.87l194.33,53.52a38.72,38.72,0,0,0,18.68.47l93.2-20.7a1.22,1.22,0,0,0,0-2.37L192.37,38.88c-7-1.77-13.33-10-16.54-14.75A21.77,21.77,0,0,0,169.71,18L155.24,8.48a24.44,24.44,0,0,0-13.77-3.71L4.16,9.2A1.22,1.22,0,0,0,3.5,11.41Z" transform="translate(-2.48 -4.26)"/>
  <line class="a" x1="351.54" y1="76.59" x2="354.2" y2="183.55"/>
  <line class="a" x1="332.39" y1="81.74" x2="337.48" y2="191.55"/>
  <line class="a" x1="304.27" y1="87.8" x2="312.27" y2="204.42"/>
  <line class="a" x1="285.63" y1="92.62" x2="292.63" y2="213.89"/>
  <line class="a" x1="261.87" y1="97.62" x2="271.64" y2="223.7"/>
  <path class="a" d="M56.61,51,109,194.22a2.89,2.89,0,0,0,3.73,1.72l115.13-42.89a4.56,4.56,0,0,0,2.72-5.76L193.31,39.47" transform="translate(-2.48 -4.26)"/>
  <path class="a" d="M79,57.62,131,200a2.23,2.23,0,0,0,2.94,1.31l111-45a3.64,3.64,0,0,0,2.07-4.56L209.59,43.29" transform="translate(-2.48 -4.26)"/>
  <path class="a" d="M100,63.3,152.1,205.51a1.47,1.47,0,0,0,2,.85l106.21-45.52a4.27,4.27,0,0,0,2.39-5.18L229.24,48.27" transform="translate(-2.48 -4.26)"/>
  <path class="a" d="M125.44,70.21l51.24,142.16a1.92,1.92,0,0,0,2.58.74l101.9-47.4a3.75,3.75,0,0,0,2-4.59L247.63,52.54" transform="translate(-2.48 -4.26)"/>
  <path class="a" d="M147.48,76.45,198.9,218.58a1,1,0,0,0,1.51.73l98.85-48.54a4.4,4.4,0,0,0,2.3-5.36l-36-108.32" transform="translate(-2.48 -4.26)"/>
  <path class="a" d="M167.18,82,215,222.54a2.86,2.86,0,0,0,3.26,1.29l97.53-48.17a5.19,5.19,0,0,0,2.68-6.3L283.09,61.87" transform="translate(-2.48 -4.26)"/>
  <path class="a" d="M193.47,88.93l44.07,139.55c.31,1,2.19,1.47,3.12,1l92-48.43a6,6,0,0,0,3-7.22L301.44,66.51" transform="translate(-2.48 -4.26)"/>
  <line class="a" x1="214.26" y1="91.22" x2="260.17" y2="228.29"/>
  <line class="a" x1="317.93" y1="67.39" x2="354.92" y2="181.03"/>
  <path class="a" d="M253.24,326.38l-3.17,6.84a1.19,1.19,0,0,0-.09.36l-1.33,16.93a1.06,1.06,0,0,0,1.75.88l14.51-12.6a1.07,1.07,0,0,0,.33-1.06l-2.92-11.53" transform="translate(-2.48 -4.26)"/>
  <path class="a" d="M327.12,286l3.45,5.15a6.65,6.65,0,0,1-.53,8.08L325.92,304a3.24,3.24,0,0,1-5.22-.48L318.64,300a7.82,7.82,0,0,1-1.06-4.87l.45-4" transform="translate(-2.48 -4.26)"/>
  <path class="a" d="M68.48,270.15l-3.73,10.52a5.27,5.27,0,0,0,.47,4.51h0a3.84,3.84,0,0,0,6.58,0l2.39-4a4.93,4.93,0,0,0-.57-5.84l-4.71-5.22A.25.25,0,0,0,68.48,270.15Z" transform="translate(-2.48 -4.26)"/>
  <path class="a" d="M180.09,228.7l-1.18,5.43a4.51,4.51,0,0,0,.53,3.25l.72,1.21a2.5,2.5,0,0,0,4.11.26l2.35-3a5.82,5.82,0,0,0,1.1-4.8l-.65-3" transform="translate(-2.48 -4.26)"/>
  <line class="a" x1="181.67" y1="222.77" x2="181.45" y2="210.48"/>
</svg>
