<svg xmlns="http://www.w3.org/2000/svg" xmlns:xlink="http://www.w3.org/1999/xlink" viewBox="0 0 1786.88 1275">
  <defs>
    <style>
      .a, .e, .k, .l {
        fill: #fff;
      }

      .a {
        stroke: #999;
        stroke-width: 0.75px;
      }

      .a, .aa, .ab, .ac, .ad, .ae, .af, .ag, .ah, .ai, .aj, .ak, .al, .am, .an, .ao, .ap, .aq, .ar, .as, .at, .au, .av, .aw, .ax, .ay, .az, .ba, .c, .d, .e, .f, .g, .h, .i, .j, .k, .l, .n, .o, .r, .t, .u, .v, .w, .x, .z {
        stroke-miterlimit: 10;
      }

      .b {
        fill: url(#a);
      }

      .aa, .ab, .ac, .ad, .ae, .af, .ag, .ah, .ai, .aj, .ak, .al, .am, .an, .ao, .ap, .aq, .ar, .as, .at, .au, .av, .aw, .ax, .ay, .az, .ba, .c, .d, .f, .g, .h, .i, .j, .n, .o, .r, .t, .u, .v, .w, .x, .z {
        stroke: #599e00;
      }

      .aa, .ab, .ad, .ae, .af, .ag, .ah, .ak, .al, .am, .an, .ao, .ap, .aq, .ar, .as, .au, .av, .aw, .ax, .ay, .az, .ba, .c, .d, .f, .j, .p, .t, .u, .v {
        opacity: 0.28;
      }

      .c {
        fill: url(#b);
      }

      .d {
        fill: url(#c);
      }

      .e {
        stroke: #b3b3b3;
      }

      .f {
        fill: url(#d);
      }

      .ac, .g, .h, .i, .n, .o, .w, .x, .z {
        stroke-width: 0.5px;
      }

      .g {
        opacity: 0.18;
        fill: url(#e);
      }

      .h, .m {
        opacity: 0.15;
      }

      .h {
        fill: url(#f);
      }

      .i, .r {
        opacity: 0.19;
      }

      .i {
        fill: url(#g);
      }

      .j {
        fill: url(#h);
      }

      .k {
        stroke: #666;
      }

      .l {
        stroke: gray;
      }

      .bb, .bc, .m, .p, .q, .s, .y {
        fill: #599e00;
      }

      .ac, .at, .n, .o, .w, .x, .z {
        opacity: 0.23;
      }

      .n {
        fill: url(#i);
      }

      .o {
        fill: url(#j);
      }

      .q {
        opacity: 0.21;
      }

      .r {
        fill: url(#k);
      }

      .s {
        opacity: 0.22;
      }

      .t {
        fill: url(#l);
      }

      .u {
        fill: url(#m);
      }

      .v {
        fill: url(#n);
      }

      .w {
        fill: url(#o);
      }

      .x {
        fill: url(#p);
      }

      .y {
        opacity: 0.2;
      }

      .z {
        fill: url(#q);
      }

      .aa {
        fill: url(#r);
      }

      .ab {
        fill: url(#s);
      }

      .ac {
        fill: url(#t);
      }

      .ad {
        fill: url(#u);
      }

      .ae {
        fill: url(#v);
      }

      .af {
        fill: url(#w);
      }

      .ag {
        fill: url(#x);
      }

      .ah {
        fill: url(#y);
      }

      .ai, .aj, .al, .at {
        fill: none;
      }

      .ai {
        opacity: 0.26;
      }

      .aj {
        opacity: 0.25;
      }

      .ak {
        fill: url(#z);
      }

      .am {
        fill: url(#aa);
      }

      .an {
        fill: url(#ab);
      }

      .ao {
        fill: url(#ac);
      }

      .ap {
        fill: url(#ad);
      }

      .aq {
        fill: url(#ae);
      }

      .ar {
        fill: url(#af);
      }

      .as {
        fill: url(#ag);
      }

      .au {
        fill: url(#ah);
      }

      .av {
        fill: url(#ai);
      }

      .aw {
        fill: url(#aj);
      }

      .ax {
        fill: url(#ak);
      }

      .ay {
        fill: url(#al);
      }

      .az {
        fill: url(#am);
      }

      .ba {
        fill: url(#an);
      }

      .bb {
        opacity: 0.37;
      }

      .bc {
        opacity: 0.17;
      }
    </style>
    <linearGradient id="a" x1="893.14" y1="1275.68" x2="893.14" y2="-0.64" gradientUnits="userSpaceOnUse">
      <stop offset="0" stop-color="#fff" stop-opacity="0"/>
      <stop offset="0.1" stop-color="#fff" stop-opacity="0.18"/>
      <stop offset="0.23" stop-color="#fff" stop-opacity="0.4"/>
      <stop offset="0.37" stop-color="#fff" stop-opacity="0.58"/>
      <stop offset="0.5" stop-color="#fff" stop-opacity="0.73"/>
      <stop offset="0.63" stop-color="#fff" stop-opacity="0.85"/>
      <stop offset="0.76" stop-color="#fff" stop-opacity="0.93"/>
      <stop offset="0.88" stop-color="#fff" stop-opacity="0.98"/>
      <stop offset="1" stop-color="#fff"/>
    </linearGradient>
    <linearGradient id="b" x1="926.49" y1="443.31" x2="990.24" y2="443.31" gradientUnits="userSpaceOnUse">
      <stop offset="0" stop-color="#fff"/>
      <stop offset="0.31" stop-color="#39b574"/>
      <stop offset="0.62" stop-color="#e8f6d5"/>
      <stop offset="0.79" stop-color="#fff"/>
      <stop offset="1" stop-color="#29ab96"/>
    </linearGradient>
    <linearGradient id="c" x1="987.85" y1="444.98" x2="1058.17" y2="444.98" xlink:href="#b"/>
    <linearGradient id="d" x1="997.43" y1="623.88" x2="1118.39" y2="623.88" xlink:href="#b"/>
    <linearGradient id="e" x1="771.47" y1="642.13" x2="629.01" y2="724.37" xlink:href="#b"/>
    <linearGradient id="f" x1="624.02" y1="619.33" x2="509.04" y2="685.71" xlink:href="#b"/>
    <linearGradient id="g" x1="737.34" y1="658.08" x2="576.5" y2="750.95" xlink:href="#b"/>
    <linearGradient id="h" x1="804.04" y1="780.79" x2="900.64" y2="613.47" xlink:href="#b"/>
    <linearGradient id="i" x1="505.19" y1="641" x2="720.44" y2="765.27" xlink:href="#b"/>
    <linearGradient id="j" x1="753.06" y1="610.82" x2="580.76" y2="710.3" xlink:href="#b"/>
    <linearGradient id="k" x1="809.84" y1="710.05" x2="1009.67" y2="710.05" xlink:href="#b"/>
    <linearGradient id="l" x1="907.46" y1="670.43" x2="970.98" y2="780.46" xlink:href="#b"/>
    <linearGradient id="m" x1="783.5" y1="669.53" x2="1011.9" y2="669.53" xlink:href="#b"/>
    <linearGradient id="n" x1="787.87" y1="592.75" x2="874.11" y2="592.75" xlink:href="#b"/>
    <linearGradient id="o" x1="691.46" y1="589.9" x2="789.5" y2="589.9" xlink:href="#b"/>
    <linearGradient id="p" x1="700.41" y1="578.41" x2="869.43" y2="578.41" xlink:href="#b"/>
    <linearGradient id="q" x1="891.5" y1="655.15" x2="759.3" y2="578.82" xlink:href="#b"/>
    <linearGradient id="r" x1="804.01" y1="577.69" x2="677.71" y2="650.61" xlink:href="#b"/>
    <linearGradient id="s" x1="691.46" y1="516.48" x2="874.11" y2="516.48" xlink:href="#b"/>
    <linearGradient id="t" x1="699.7" y1="634.39" x2="872.38" y2="634.39" xlink:href="#b"/>
    <linearGradient id="u" x1="924.24" y1="569.71" x2="1000.21" y2="569.71" xlink:href="#b"/>
    <linearGradient id="v" x1="998.68" y1="572.36" x2="1092.34" y2="572.36" xlink:href="#b"/>
    <linearGradient id="w" x1="1019.67" y1="650.23" x2="1082.68" y2="541.1" xlink:href="#b"/>
    <linearGradient id="x" x1="992.72" y1="554.17" x2="948.14" y2="631.38" xlink:href="#b"/>
    <linearGradient id="y" x1="926.7" y1="544.16" x2="1091.21" y2="544.16" xlink:href="#b"/>
    <linearGradient id="z" x1="1071.6" y1="640.49" x2="1205.07" y2="640.49" xlink:href="#b"/>
    <linearGradient id="aa" x1="1004.17" y1="591.85" x2="1198.48" y2="591.85" xlink:href="#b"/>
    <linearGradient id="ab" x1="1084.11" y1="655.94" x2="1198.68" y2="655.94" xlink:href="#b"/>
    <linearGradient id="ac" x1="930.04" y1="431.36" x2="1054.31" y2="431.36" xlink:href="#b"/>
    <linearGradient id="ad" x1="927.6" y1="472.75" x2="1054.92" y2="472.75" xlink:href="#b"/>
    <linearGradient id="ae" x1="1012.64" y1="506.48" x2="910.94" y2="404.79" xlink:href="#b"/>
    <linearGradient id="af" x1="980.81" y1="413.84" x2="1066.13" y2="499.16" xlink:href="#b"/>
    <linearGradient id="ag" x1="1024.83" y1="355.05" x2="961.43" y2="418.44" xlink:href="#b"/>
    <linearGradient id="ah" x1="1180" y1="484.47" x2="1270.41" y2="484.47" xlink:href="#b"/>
    <linearGradient id="ai" x1="1118.9" y1="484.63" x2="1187.46" y2="484.63" xlink:href="#b"/>
    <linearGradient id="aj" x1="1123.73" y1="471.48" x2="1266.96" y2="471.48" xlink:href="#b"/>
    <linearGradient id="ak" x1="1121.27" y1="517.77" x2="1263.39" y2="517.77" xlink:href="#b"/>
    <linearGradient id="al" x1="1276.46" y1="544.58" x2="1188.37" y2="456.49" xlink:href="#b"/>
    <linearGradient id="am" x1="1126.11" y1="565.5" x2="1202.18" y2="433.74" xlink:href="#b"/>
    <linearGradient id="an" x1="1180.61" y1="452.4" x2="1216.04" y2="391.04" xlink:href="#b"/>
  </defs>
  <line class="a" x1="712" y1="1275.5" x2="1787.66" y2="632.16"/>
  <line class="a" x1="50.15" y1="1275.68" x2="1784.08" y2="492.73"/>
  <line class="a" x1="0.1" y1="1030.79" x2="1787.66" y2="412.29"/>
  <line class="a" x1="3.67" y1="823.43" x2="1785.87" y2="342.58"/>
  <line class="a" x1="1.89" y1="694.73" x2="1785.87" y2="290.74"/>
  <line class="a" x1="0.1" y1="562.45" x2="1785.87" y2="251.41"/>
  <line class="a" x1="1.89" y1="473.07" x2="1784.08" y2="226.38"/>
  <line class="a" x1="1.89" y1="394.42" x2="1784.08" y2="197.78"/>
  <line class="a" x1="1.89" y1="339" x2="1784.08" y2="178.12"/>
  <line class="a" x1="-1.69" y1="297.89" x2="1784.08" y2="172.76"/>
  <line class="a" x1="-1.69" y1="247.84" x2="1787.66" y2="167.39"/>
  <line class="a" x1="794" y1="1274.5" x2="0.1" y2="591.05"/>
  <line class="a" x1="1298" y1="1272.5" x2="-1.69" y2="467.71"/>
  <line class="a" x1="1785.87" y1="1243.51" x2="1.89" y2="356.88"/>
  <line class="a" x1="1785.87" y1="939.62" x2="1.89" y2="297.89"/>
  <line class="a" x1="1785.87" y1="773.38" x2="1.89" y2="256.77"/>
  <line class="a" x1="1785.87" y1="623.22" x2="1.89" y2="226.38"/>
  <line class="a" x1="1784.08" y1="530.27" x2="1.89" y2="204.93"/>
  <line class="a" x1="1784.08" y1="444.47" x2="300.41" y2="233.53"/>
  <line class="a" x1="1785.87" y1="371.18" x2="425.36" y2="228.99"/>
  <line class="a" x1="1785.87" y1="333.64" x2="596.78" y2="221.51"/>
  <line class="a" x1="1785.87" y1="249.62" x2="993.09" y2="203.2"/>
  <line class="a" x1="1243" y1="192.5" x2="1784.08" y2="219.23"/>
  <line class="a" x1="787.16" y1="212.36" x2="1784.08" y2="290.74"/>
  <polygon class="b" points="1787.66 1275.68 -1.69 1275.68 3.67 -0.64 1787.97 -0.62 1787.66 1275.68"/>
  <path class="c" d="M926.49,508.24c.29-1.73,2.12-121.12,2.12-121.12l61.63-8.75-2.39,116.29Z"/>
  <polygon class="d" points="990.24 378.37 1058.17 388.34 1053.7 511.59 987.85 494.66 990.24 378.37"/>
  <path class="e" d="M987.85,494.66l-61.36,13.58a1.5,1.5,0,0,0,0,2.92l65.52,16,65.75-15.56a2,2,0,0,0,0-.91Z"/>
  <polygon class="e" points="926.38 511.29 923.33 700.44 988 726.98 991.97 527.15 926.38 511.29"/>
  <polygon class="e" points="991.97 527.15 1057.56 511.59 1050.55 697.39 985.56 725.76 991.97 527.15"/>
  <polygon class="f" points="1113.55 660.02 1118.38 566.23 997.43 601.02 1051.77 681.53 1113.55 660.02"/>
  <polygon class="e" points="611.73 694.44 719.94 746.51 728.48 842.91 529.97 717.22 611.73 694.44"/>
  <polygon class="g" points="783.29 662.61 608.56 592.37 611.73 694.44 784.82 778.24 783.29 662.61"/>
  <polygon class="h" points="611.73 694.44 608.38 592.24 522.14 610.14 527.94 718.44 611.73 694.44"/>
  <polygon class="i" points="528.14 667.19 737.63 769.59 773.07 719.97 610.31 648.58 528.14 667.19"/>
  <polygon class="j" points="922.72 724.7 922.51 626.1 783.8 666.37 784.82 769.7 922.72 724.7"/>
  <polygon class="e" points="871.16 812.98 1008.65 758.71 922.56 724.54 837.9 754.29 871.16 812.98"/>
  <polygon class="e" points="1113.55 660.02 1043.73 685.29 1083.8 728.2 1191.39 685.9 1113.55 660.02"/>
  <polygon class="e" points="1191.39 685.9 1113.55 660.02 1118.88 561.32 1198.61 580.95 1191.39 685.9"/>
  <polygon class="e" points="1008.65 758.71 1012.51 645.83 922.87 617.76 922.72 724.7 1008.65 758.71"/>
  <path class="k" d="M1012.51,645.83l76-24.72a.2.2,0,0,0,0-.38l-89.79-26.46L923.1,616.5a.7.7,0,0,0,0,1.34Z"/>
  <path class="l" d="M1198.61,581l65.67-20.85a.9.9,0,0,0-.08-1.74l-84.2-18.8-59.11,16.82a2.82,2.82,0,0,0,.09,5.45Z"/>
  <polygon class="m" points="528.14 667.19 711.39 756.68 710.78 759.73 528.14 669.83 528.14 667.19"/>
  <polygon class="n" points="527.12 716.41 522.24 611.46 694.11 687.32 696.75 806.3 527.12 716.41"/>
  <path class="o" d="M608.52,592.46l174.39,70.12a.12.12,0,0,1,.08.12l3.85,63a.14.14,0,0,1-.2.13l-264-116.27a.14.14,0,0,1,0-.26l85.76-16.89A.11.11,0,0,1,608.52,592.46Z"/>
  <polygon class="p" points="522.24 611.46 522.24 609.42 703.67 689.36 703.26 691.59 522.24 611.46"/>
  <polygon class="q" points="783.9 662.71 783.66 663.82 608.51 593.18 783.9 662.71"/>
  <polygon class="r" points="1009.66 699.22 933.09 671.15 809.84 710.51 869.63 748.95 1009.66 699.22"/>
  <polygon class="s" points="1011.8 698.71 1012.72 700.14 858.34 755.66 860.28 752.51 1011.8 698.71"/>
  <polygon class="t" points="871.16 812.98 1008.65 758.71 1012.21 646.44 871.87 690.98 871.16 812.98"/>
  <polygon class="u" points="932.17 620.61 1011.9 645.83 784.31 718.44 783.5 663.53 932.17 620.61"/>
  <polygon class="p" points="1012.41 646.03 1012.41 648.07 871.87 692.61 871.87 690.78 1012.41 646.03"/>
  <polygon class="v" points="871.26 690.78 874.11 517.49 787.87 494.71 789.5 658.24 871.26 690.78"/>
  <polygon class="w" points="695.53 685.09 789.5 657.02 787.87 494.71 691.46 512.61 695.53 685.09"/>
  <polygon class="x" points="700.4 573.88 782.99 602.3 869.43 580.34 784.21 554.51 700.4 573.88"/>
  <polygon class="y" points="700.4 573.88 700.21 575.66 782.78 604.14 782.99 602.3 700.4 573.88"/>
  <polygon class="y" points="782.78 604.14 782.99 602.3 869.43 580.34 869.43 582.17 782.78 604.14"/>
  <path class="l" d="M783.69,718.5l87.52-28.12a.89.89,0,0,0,0-1.68l-82.17-31.58-90,25Z"/>
  <polygon class="z" points="871.45 689.88 783.45 717.88 782.03 539.45 872.95 519.32 871.45 689.88"/>
  <polygon class="aa" points="784 718.5 782.17 539.87 691.46 513.42 695.73 681.83 784 718.5"/>
  <path class="l" d="M786,968.5l-258-160-4.88-92.66a1.32,1.32,0,0,1,1.94-1.23L697,806.5l-3-127,90,39Z"/>
  <polygon class="p" points="691.46 511.61 691.67 514.25 782.38 541.1 782.17 538.66 691.46 511.61"/>
  <path class="p" d="M874.11,520.76,782.38,541.1a8.45,8.45,0,0,1-.21-2.44c.21-.41,91.94-20.13,91.94-20.13Z"/>
  <polygon class="ab" points="691.46 512.61 787.05 494.71 874.11 517.49 782.58 538.24 691.46 512.61"/>
  <polygon class="y" points="783.19 663.12 783.19 661.29 871.05 635.46 871.05 637.29 783.19 663.12"/>
  <polygon class="y" points="699.69 629.59 699.5 631.37 783.19 663.53 783.39 661.7 699.69 629.59"/>
  <polygon class="ac" points="699.7 630.27 781.77 662 872.38 636.37 789.09 606.78 699.7 630.27"/>
  <polyline class="ad" points="925.46 541.8 1000.21 523.8 998.68 594.27 924.24 615.63 925.77 541.19"/>
  <polygon class="ae" points="1089.09 620.92 998.68 594.27 1000.21 523.8 1092.34 546.68 1089.09 620.92"/>
  <polygon class="af" points="1012.41 646.03 1089.09 620.92 1092.34 546.68 1015.16 567.12 1012.41 646.03"/>
  <polygon class="ag" points="1012.41 646.03 1015.16 567.12 926.07 543.63 924.55 617.76 1012.41 646.03"/>
  <path class="ah" d="M1015.16,565.59l76-20.26s0,0,0,0l-91.15-22.56-72.74,17.58c-.46.12-.94,1.78-.32,1.49Z"/>
  <line class="ai" x1="1014.85" y1="566.36" x2="925.92" y2="542.41"/>
  <line class="aj" x1="1015.46" y1="566.2" x2="1091.89" y2="545.92"/>
  <polygon class="ak" points="1083.19 672.68 1205.07 629.66 1125.6 608.3 1071.6 626.3 1083.19 672.68"/>
  <line class="al" x1="1084.72" y1="673.31" x2="1209.47" y2="629.2"/>
  <polygon class="am" points="1089.14 620.51 1198.48 583.43 1118.38 563.2 1004.17 595.73 1089.14 620.51"/>
  <polygon class="an" points="1084.11 728.66 1191.7 686.36 1198.68 583.22 1089.14 620.51 1084.11 728.66"/>
  <line class="al" x1="1198.48" y1="584.23" x2="1085.02" y2="623.1"/>
  <path class="l" d="M786.29,968.19l-2-248.63a.8.8,0,0,1,.57-.79l86.35-27.47a.81.81,0,0,1,1.06.78l-.82,120.15a.82.82,0,0,0,1.12.76l135.86-53.62a.81.81,0,0,0,.52-.74l3.83-111.77a.83.83,0,0,1,.56-.75l74.91-24.37a.82.82,0,0,1,1.07.82l-5.17,104.84a.81.81,0,0,0,1.11.8l105.94-41.65a.82.82,0,0,0,.51-.71L1198.88,582a.81.81,0,0,1,.57-.72l64.82-20.52a.82.82,0,0,1,1.06.85l-15.22,192.75a.82.82,0,0,1-.47.68L787.45,968.92A.82.82,0,0,1,786.29,968.19Z"/>
  <polygon class="ao" points="930.04 430.04 989.02 419.87 1054.31 431.46 994.72 442.85 930.04 430.04"/>
  <polygon class="ap" points="927.6 471.12 988.41 459.53 1054.92 472.95 993.5 485.97 927.6 471.12"/>
  <polygon class="q" points="928.51 429.98 928.51 431.97 994.72 444.63 994.72 442.85 928.51 429.98"/>
  <polygon class="q" points="994.72 444.63 994.72 442.85 1056.04 431.51 1056.04 433.34 994.72 444.63"/>
  <polygon class="q" points="927.6 471.12 927.6 473.15 993.8 487.64 1054.82 474.83 1054.92 472.95 993.5 485.97 927.6 471.12"/>
  <polygon class="aq" points="926.38 511.29 928.61 387.12 995.94 398.71 991.97 527.15 926.38 511.29"/>
  <polygon class="ar" points="995.94 398.71 1058.07 388.95 1053.7 511.59 991.97 527.15 995.94 398.71"/>
  <path class="as" d="M990.23,377.38l-61,8.65a.1.1,0,0,0,0,.2l66.66,11.48h0l60.92-10.15a.21.21,0,0,0,0-.41l-66.61-9.77Z"/>
  <line class="al" x1="995.78" y1="397.95" x2="1057.56" y2="388.03"/>
  <line class="at" x1="995.94" y1="397.95" x2="928.51" y2="386.97"/>
  <polygon class="au" points="1180 539.56 1187.46 411.93 1270.41 424.17 1260.62 557.02 1180 539.56"/>
  <polygon class="av" points="1187.46 411.93 1126.24 423.25 1118.9 557.32 1180 539.56 1187.46 411.93"/>
  <polygon class="aw" points="1123.73 470.36 1184.86 456.75 1266.96 471.48 1205.16 486.2 1123.73 470.36"/>
  <polygon class="ax" points="1181.96 501.37 1121.27 516.32 1201.37 534.17 1263.39 517.21 1181.96 501.37"/>
  <polygon class="p" points="1123.73 473.26 1123.73 470.36 1205.16 486.2 1204.71 489.1 1123.73 473.26"/>
  <polygon class="p" points="1204.71 489.1 1205.16 486.2 1266.96 471.48 1266.74 473.71 1204.71 489.1"/>
  <polygon class="p" points="1201.37 537.07 1201.37 534.17 1263.39 517.21 1263.17 520.12 1201.37 537.07"/>
  <polygon class="p" points="1120.83 519.22 1121.27 516.32 1201.37 534.17 1201.37 537.07 1120.83 519.22"/>
  <polygon class="ay" points="1207.85 437.01 1270.41 424.17 1260.03 561.01 1198.92 581.41 1207.85 437.01"/>
  <polygon class="az" points="1207.85 437.01 1126.24 423.25 1118.88 561.32 1198.92 581.41 1207.85 437.01"/>
  <path class="ba" d="M1126.86,421.36l81,13.65h0l61.93-12.71a.11.11,0,0,0,0-.22l-82.31-12.15h0l-60.58,11.21A.11.11,0,0,0,1126.86,421.36Z"/>
  <polygon class="bb" points="1208.17 436.65 1208.17 435.49 1269.95 422.74 1269.86 424.39 1208.17 436.65"/>
  <polygon class="bb" points="1208.17 436.65 1208.17 435.49 1126.53 421.83 1126.48 422.77 1208.17 436.65"/>
  <polygon class="bc" points="608.51 592.89 608.46 592.04 522.38 609.23 522.28 610.13 608.51 592.89"/>
  <line class="a" x1="380.85" y1="1273.89" x2="0.1" y2="801.98"/>
  <line class="a" x1="1264.13" y1="1275.59" x2="1785.87" y2="860.97"/>
</svg>
